<svg width="32" height="32" viewBox="0 0 32 32" fill="none" xmlns="http://www.w3.org/2000/svg">
<g id="&#229;&#131;&#143;&#231;&#180;&#160;_&#233;&#135;&#145;&#229;&#184;&#129;" clip-path="url(#clip0_1628_14324)">
<path id="Vector" d="M24.3462 24.3465H26.7308V26.7311H24.3462V24.3465ZM24.3462 21.9618H26.7308V24.3465H24.3462V21.9618ZM24.3462 19.5772H26.7308V21.9618H24.3462V19.5772ZM24.3462 17.1926H26.7308V19.5772H24.3462V17.1926ZM24.3462 14.808H26.7308V17.1926H24.3462V14.808ZM24.3462 12.4234H26.7308V14.808H24.3462V12.4234ZM24.3462 10.0388H26.7308V12.4234H24.3462V10.0388ZM24.3462 7.65415H26.7308V10.0388H24.3462V7.65415ZM24.3462 5.26953H26.7308V7.65415H24.3462V5.26953ZM21.9615 26.7311H24.3462V29.1157H21.9615V26.7311Z" fill="#1E2028"/>
<path id="Vector_2" d="M21.9615 24.3465H24.3462V26.7311H21.9615V24.3465ZM21.9615 21.9618H24.3462V24.3465H21.9615V21.9618ZM21.9615 19.5772H24.3462V21.9618H21.9615V19.5772ZM21.9615 17.1926H24.3462V19.5772H21.9615V17.1926ZM21.9615 14.808H24.3462V17.1926H21.9615V14.808ZM21.9615 12.4234H24.3462V14.808H21.9615V12.4234ZM21.9615 10.0388H24.3462V12.4234H21.9615V10.0388ZM21.9615 7.65415H24.3462V10.0388H21.9615V7.65415ZM21.9615 5.26953H24.3462V7.65415H21.9615V5.26953Z" fill="#FF9343"/>
<path id="Vector_3" d="M21.9615 2.88477H24.3461V5.26938H21.9615V2.88477ZM19.5769 29.1155H21.9615V31.5002H19.5769V29.1155Z" fill="#1E2028"/>
<path id="Vector_4" d="M19.5769 26.7303H21.9615V29.1149H19.5769V26.7303ZM19.5769 24.3457H21.9615V26.7303H19.5769V24.3457Z" fill="#FF9343"/>
<path id="Vector_5" d="M19.5769 21.9623H21.9615V24.3469H19.5769V21.9623ZM19.5769 19.5777H21.9615V21.9623H19.5769V19.5777ZM19.5769 17.1931H21.9615V19.5777H19.5769V17.1931ZM19.5769 14.8084H21.9615V17.1931H19.5769V14.8084ZM19.5769 12.4238H21.9615V14.8084H19.5769V12.4238Z" fill="#FFDD4D"/>
<path id="Vector_6" d="M19.5769 10.0389H21.9615V12.4235H19.5769V10.0389ZM19.5769 7.6543H21.9615V10.0389H19.5769V7.6543Z" fill="white"/>
<path id="Vector_7" d="M19.5769 5.26938H21.9615V7.654H19.5769V5.26938ZM19.5769 2.88477H21.9615V5.26938H19.5769V2.88477Z" fill="#FFDD4D"/>
<path id="Vector_8" d="M19.5769 0.5H21.9615V2.88462H19.5769V0.5ZM17.1923 29.1154H19.5769V31.5H17.1923V29.1154Z" fill="#1E2028"/>
<path id="Vector_9" d="M17.1923 26.7305H19.5769V29.1151H17.1923V26.7305Z" fill="#FF9343"/>
<path id="Vector_10" d="M17.1923 24.3457H19.5769V26.7303H17.1923V24.3457Z" fill="#1E2028"/>
<path id="Vector_11" d="M17.1923 21.962H19.5769V24.3466H17.1923V21.962ZM17.1923 19.5774H19.5769V21.962H17.1923V19.5774ZM17.1923 17.1928H19.5769V19.5774H17.1923V17.1928ZM17.1923 14.8081H19.5769V17.1928H17.1923V14.8081ZM17.1923 12.4235H19.5769V14.8081H17.1923V12.4235ZM17.1923 10.0389H19.5769V12.4235H17.1923V10.0389ZM17.1923 7.6543H19.5769V10.0389H17.1923V7.6543Z" fill="#FFDD4D"/>
<path id="Vector_12" d="M17.1923 5.26953H19.5769V7.65415H17.1923V5.26953Z" fill="white"/>
<path id="Vector_13" d="M17.1923 2.88477H19.5769V5.26938H17.1923V2.88477Z" fill="#FFDD4D"/>
<path id="Vector_14" d="M17.1924 0.5H19.577V2.88462H17.1924V0.5ZM14.8077 29.1154H17.1924V31.5H14.8077V29.1154Z" fill="#1E2028"/>
<path id="Vector_15" d="M14.8077 26.7305H17.1924V29.1151H14.8077V26.7305Z" fill="#FF9343"/>
<path id="Vector_16" d="M14.8077 24.3457H17.1924V26.7303H14.8077V24.3457Z" fill="#1E2028"/>
<path id="Vector_17" d="M14.8077 21.9617H17.1924V24.3463H14.8077V21.9617ZM14.8077 19.5771H17.1924V21.9617H14.8077V19.5771ZM14.8077 17.1925H17.1924V19.5771H14.8077V17.1925ZM14.8077 14.8078H17.1924V17.1925H14.8077V14.8078ZM14.8077 12.4232H17.1924V14.8078H14.8077V12.4232ZM14.8077 10.0386H17.1924V12.4232H14.8077V10.0386ZM14.8077 7.654H17.1924V10.0386H14.8077V7.654ZM14.8077 5.26938H17.1924V7.654H14.8077V5.26938ZM14.8077 2.88477H17.1924V5.26938H14.8077V2.88477Z" fill="#FFDD4D"/>
<path id="Vector_18" d="M14.8077 0.5H17.1923V2.88462H14.8077V0.5ZM12.4231 29.1154H14.8077V31.5H12.4231V29.1154Z" fill="#1E2028"/>
<path id="Vector_19" d="M12.4231 26.7305H14.8077V29.1151H12.4231V26.7305Z" fill="#FF9343"/>
<path id="Vector_20" d="M12.4231 24.3457H14.8077V26.7303H12.4231V24.3457Z" fill="#1E2028"/>
<path id="Vector_21" d="M12.4231 21.962H14.8077V24.3466H12.4231V21.962ZM12.4231 19.5774H14.8077V21.962H12.4231V19.5774ZM12.4231 17.1928H14.8077V19.5774H12.4231V17.1928ZM12.4231 14.8081H14.8077V17.1928H12.4231V14.8081ZM12.4231 12.4235H14.8077V14.8081H12.4231V12.4235ZM12.4231 10.0389H14.8077V12.4235H12.4231V10.0389ZM12.4231 7.6543H14.8077V10.0389H12.4231V7.6543Z" fill="#FF9343"/>
<path id="Vector_22" d="M12.4231 5.26953H14.8077V7.65415H12.4231V5.26953Z" fill="#1E2028"/>
<path id="Vector_23" d="M12.4231 2.88477H14.8077V5.26938H12.4231V2.88477Z" fill="#FFDD4D"/>
<path id="Vector_24" d="M12.4231 0.5H14.8077V2.88462H12.4231V0.5ZM10.0385 29.1154H12.4231V31.5H10.0385V29.1154Z" fill="#1E2028"/>
<path id="Vector_25" d="M10.0385 26.7303H12.4231V29.1149H10.0385V26.7303ZM10.0385 24.3457H12.4231V26.7303H10.0385V24.3457Z" fill="#FFF1B6"/>
<path id="Vector_26" d="M10.0385 21.962H12.4231V24.3466H10.0385V21.962ZM10.0385 19.5774H12.4231V21.962H10.0385V19.5774ZM10.0385 17.1928H12.4231V19.5774H10.0385V17.1928ZM10.0385 14.8081H12.4231V17.1928H10.0385V14.8081ZM10.0385 12.4235H12.4231V14.8081H10.0385V12.4235ZM10.0385 10.0389H12.4231V12.4235H10.0385V10.0389ZM10.0385 7.6543H12.4231V10.0389H10.0385V7.6543Z" fill="#1E2028"/>
<path id="Vector_27" d="M10.0385 5.26938H12.4231V7.654H10.0385V5.26938ZM10.0385 2.88477H12.4231V5.26938H10.0385V2.88477Z" fill="#FFF1B6"/>
<path id="Vector_28" d="M10.0384 0.5H12.423V2.88462H10.0384V0.5ZM7.65381 26.7308H10.0384V29.1154H7.65381V26.7308Z" fill="#1E2028"/>
<path id="Vector_29" d="M7.65381 24.3465H10.0384V26.7311H7.65381V24.3465ZM7.65381 21.9618H10.0384V24.3465H7.65381V21.9618ZM7.65381 19.5772H10.0384V21.9618H7.65381V19.5772ZM7.65381 17.1926H10.0384V19.5772H7.65381V17.1926ZM7.65381 14.808H10.0384V17.1926H7.65381V14.808ZM7.65381 12.4234H10.0384V14.808H7.65381V12.4234ZM7.65381 10.0388H10.0384V12.4234H7.65381V10.0388ZM7.65381 7.65415H10.0384V10.0388H7.65381V7.65415ZM7.65381 5.26953H10.0384V7.65415H7.65381V5.26953Z" fill="#FFF1B6"/>
<path id="Vector_30" d="M7.6539 2.88477H10.0385V5.26938H7.6539V2.88477ZM5.26929 24.3463H7.6539V26.7309H5.26929V24.3463ZM5.26929 21.9617H7.6539V24.3463H5.26929V21.9617ZM5.26929 19.5771H7.6539V21.9617H5.26929V19.5771ZM5.26929 17.1925H7.6539V19.5771H5.26929V17.1925ZM5.26929 14.8078H7.6539V17.1925H5.26929V14.8078ZM5.26929 12.4232H7.6539V14.8078H5.26929V12.4232ZM5.26929 10.0386H7.6539V12.4232H5.26929V10.0386ZM5.26929 7.654H7.6539V10.0386H5.26929V7.654ZM5.26929 5.26938H7.6539V7.654H5.26929V5.26938Z" fill="#1E2028"/>
</g>
<defs>
<clipPath id="clip0_1628_14324">
<rect width="31" height="31" fill="white" transform="translate(0.5 0.5)"/>
</clipPath>
</defs>
</svg>
