<svg width="1085" height="261" viewBox="0 0 1085 261" fill="none" xmlns="http://www.w3.org/2000/svg">
  <g filter="url(#filter0_d_728_7599)">
    <path
      d="M0 122.5V0H105H210V17.5V35H227.5H245V70V105H227.5H210V122.5V140H227.5H245V175V210H227.5H210V227.5V245H105H0V122.5ZM175 70V35H122.5H70V70V105H122.5H175V70ZM175 175V140H122.5H70V175V210H122.5H175V175ZM315 17.5V0H385H455V17.5V35H472.5H490V52.5V70H455H420V52.5V35H385H350V70V105H420H490V122.5V140H507.5H525V175V210H507.5H490V227.5V245H402.5H315V227.5V210H297.5H280V192.5V175H315H350V192.5V210H402.5H455V175V140H385H315V122.5V105H297.5H280V70V35H297.5H315V17.5ZM595 17.5V0H665H735V17.5V35H752.5H770V52.5V70H735H700V52.5V35H665H630V70V105H700H770V122.5V140H787.5H805V175V210H787.5H770V227.5V245H682.5H595V227.5V210H577.5H560V192.5V175H595H630V192.5V210H682.5H735V175V140H665H595V122.5V105H577.5H560V70V35H577.5H595V17.5ZM840 122.5V0H945H1050V17.5V35H1067.5H1085V70V105H1067.5H1050V122.5V140H1067.5H1085V175V210H1067.5H1050V227.5V245H945H840V122.5ZM1015 70V35H962.5H910V70V105H962.5H1015V70ZM1015 175V140H962.5H910V175V210H962.5H1015V175Z"
      fill="#B4B55B" />
    <path
      d="M0 0V-5H-5V0H0ZM210 0H215V-5H210V0ZM210 35H205V40H210V35ZM245 35H250V30H245V35ZM245 105V110H250V105H245ZM210 105V100H205V105H210ZM210 140H205V145H210V140ZM245 140H250V135H245V140ZM245 210V215H250V210H245ZM210 210V205H205V210H210ZM210 245V250H215V245H210ZM0 245H-5V250H0V245ZM175 35H180V30H175V35ZM70 35V30H65V35H70ZM70 105H65V110H70V105ZM175 105V110H180V105H175ZM175 140H180V135H175V140ZM70 140V135H65V140H70ZM70 210H65V215H70V210ZM175 210V215H180V210H175ZM5 122.5V0H-5V122.5H5ZM0 5H105V-5H0V5ZM105 5H210V-5H105V5ZM205 0V17.5H215V0H205ZM205 17.5V35H215V17.5H205ZM210 40H227.5V30H210V40ZM227.5 40H245V30H227.5V40ZM240 35V70H250V35H240ZM240 70V105H250V70H240ZM245 100H227.5V110H245V100ZM227.5 100H210V110H227.5V100ZM205 105V122.5H215V105H205ZM205 122.5V140H215V122.5H205ZM210 145H227.5V135H210V145ZM227.5 145H245V135H227.5V145ZM240 140V175H250V140H240ZM240 175V210H250V175H240ZM245 205H227.5V215H245V205ZM227.5 205H210V215H227.5V205ZM205 210V227.5H215V210H205ZM205 227.5V245H215V227.5H205ZM210 240H105V250H210V240ZM105 240H0V250H105V240ZM5 245V122.5H-5V245H5ZM180 70V35H170V70H180ZM175 30H122.5V40H175V30ZM122.5 30H70V40H122.5V30ZM65 35V70H75V35H65ZM65 70V105H75V70H65ZM70 110H122.5V100H70V110ZM122.5 110H175V100H122.5V110ZM180 105V70H170V105H180ZM180 175V140H170V175H180ZM175 135H122.5V145H175V135ZM122.5 135H70V145H122.5V135ZM65 140V175H75V140H65ZM65 175V210H75V175H65ZM70 215H122.5V205H70V215ZM122.5 215H175V205H122.5V215ZM180 210V175H170V210H180ZM315 0V-5H310V0H315ZM455 0H460V-5H455V0ZM455 35H450V40H455V35ZM490 35H495V30H490V35ZM490 70V75H495V70H490ZM420 70H415V75H420V70ZM420 35H425V30H420V35ZM350 35V30H345V35H350ZM350 105H345V110H350V105ZM490 105H495V100H490V105ZM490 140H485V145H490V140ZM525 140H530V135H525V140ZM525 210V215H530V210H525ZM490 210V205H485V210H490ZM490 245V250H495V245H490ZM315 245H310V250H315V245ZM315 210H320V205H315V210ZM280 210H275V215H280V210ZM280 175V170H275V175H280ZM350 175H355V170H350V175ZM350 210H345V215H350V210ZM455 210V215H460V210H455ZM455 140H460V135H455V140ZM315 140H310V145H315V140ZM315 105H320V100H315V105ZM280 105H275V110H280V105ZM280 35V30H275V35H280ZM315 35V40H320V35H315ZM320 17.5V0H310V17.5H320ZM315 5H385V-5H315V5ZM385 5H455V-5H385V5ZM450 0V17.5H460V0H450ZM450 17.5V35H460V17.5H450ZM455 40H472.5V30H455V40ZM472.5 40H490V30H472.5V40ZM485 35V52.5H495V35H485ZM485 52.5V70H495V52.5H485ZM490 65H455V75H490V65ZM455 65H420V75H455V65ZM425 70V52.5H415V70H425ZM425 52.5V35H415V52.5H425ZM420 30H385V40H420V30ZM385 30H350V40H385V30ZM345 35V70H355V35H345ZM345 70V105H355V70H345ZM350 110H420V100H350V110ZM420 110H490V100H420V110ZM485 105V122.5H495V105H485ZM485 122.5V140H495V122.5H485ZM490 145H507.5V135H490V145ZM507.5 145H525V135H507.5V145ZM520 140V175H530V140H520ZM520 175V210H530V175H520ZM525 205H507.5V215H525V205ZM507.5 205H490V215H507.5V205ZM485 210V227.5H495V210H485ZM485 227.5V245H495V227.5H485ZM490 240H402.5V250H490V240ZM402.5 240H315V250H402.5V240ZM320 245V227.5H310V245H320ZM320 227.5V210H310V227.5H320ZM315 205H297.5V215H315V205ZM297.5 205H280V215H297.5V205ZM285 210V192.5H275V210H285ZM285 192.5V175H275V192.5H285ZM280 180H315V170H280V180ZM315 180H350V170H315V180ZM345 175V192.5H355V175H345ZM345 192.5V210H355V192.5H345ZM350 215H402.5V205H350V215ZM402.5 215H455V205H402.5V215ZM460 210V175H450V210H460ZM460 175V140H450V175H460ZM455 135H385V145H455V135ZM385 135H315V145H385V135ZM320 140V122.5H310V140H320ZM320 122.5V105H310V122.5H320ZM315 100H297.5V110H315V100ZM297.5 100H280V110H297.5V100ZM285 105V70H275V105H285ZM285 70V35H275V70H285ZM280 40H297.5V30H280V40ZM297.5 40H315V30H297.5V40ZM320 35V17.5H310V35H320ZM595 0V-5H590V0H595ZM735 0H740V-5H735V0ZM735 35H730V40H735V35ZM770 35H775V30H770V35ZM770 70V75H775V70H770ZM700 70H695V75H700V70ZM700 35H705V30H700V35ZM630 35V30H625V35H630ZM630 105H625V110H630V105ZM770 105H775V100H770V105ZM770 140H765V145H770V140ZM805 140H810V135H805V140ZM805 210V215H810V210H805ZM770 210V205H765V210H770ZM770 245V250H775V245H770ZM595 245H590V250H595V245ZM595 210H600V205H595V210ZM560 210H555V215H560V210ZM560 175V170H555V175H560ZM630 175H635V170H630V175ZM630 210H625V215H630V210ZM735 210V215H740V210H735ZM735 140H740V135H735V140ZM595 140H590V145H595V140ZM595 105H600V100H595V105ZM560 105H555V110H560V105ZM560 35V30H555V35H560ZM595 35V40H600V35H595ZM600 17.5V0H590V17.5H600ZM595 5H665V-5H595V5ZM665 5H735V-5H665V5ZM730 0V17.5H740V0H730ZM730 17.5V35H740V17.5H730ZM735 40H752.5V30H735V40ZM752.5 40H770V30H752.5V40ZM765 35V52.5H775V35H765ZM765 52.5V70H775V52.5H765ZM770 65H735V75H770V65ZM735 65H700V75H735V65ZM705 70V52.5H695V70H705ZM705 52.5V35H695V52.5H705ZM700 30H665V40H700V30ZM665 30H630V40H665V30ZM625 35V70H635V35H625ZM625 70V105H635V70H625ZM630 110H700V100H630V110ZM700 110H770V100H700V110ZM765 105V122.5H775V105H765ZM765 122.5V140H775V122.5H765ZM770 145H787.5V135H770V145ZM787.5 145H805V135H787.5V145ZM800 140V175H810V140H800ZM800 175V210H810V175H800ZM805 205H787.5V215H805V205ZM787.5 205H770V215H787.5V205ZM765 210V227.5H775V210H765ZM765 227.5V245H775V227.5H765ZM770 240H682.5V250H770V240ZM682.5 240H595V250H682.5V240ZM600 245V227.5H590V245H600ZM600 227.5V210H590V227.5H600ZM595 205H577.5V215H595V205ZM577.5 205H560V215H577.5V205ZM565 210V192.5H555V210H565ZM565 192.5V175H555V192.5H565ZM560 180H595V170H560V180ZM595 180H630V170H595V180ZM625 175V192.5H635V175H625ZM625 192.5V210H635V192.5H625ZM630 215H682.5V205H630V215ZM682.5 215H735V205H682.5V215ZM740 210V175H730V210H740ZM740 175V140H730V175H740ZM735 135H665V145H735V135ZM665 135H595V145H665V135ZM600 140V122.5H590V140H600ZM600 122.5V105H590V122.5H600ZM595 100H577.5V110H595V100ZM577.5 100H560V110H577.5V100ZM565 105V70H555V105H565ZM565 70V35H555V70H565ZM560 40H577.5V30H560V40ZM577.5 40H595V30H577.5V40ZM600 35V17.5H590V35H600ZM840 0V-5H835V0H840ZM1050 0H1055V-5H1050V0ZM1050 35H1045V40H1050V35ZM1085 35H1090V30H1085V35ZM1085 105V110H1090V105H1085ZM1050 105V100H1045V105H1050ZM1050 140H1045V145H1050V140ZM1085 140H1090V135H1085V140ZM1085 210V215H1090V210H1085ZM1050 210V205H1045V210H1050ZM1050 245V250H1055V245H1050ZM840 245H835V250H840V245ZM1015 35H1020V30H1015V35ZM910 35V30H905V35H910ZM910 105H905V110H910V105ZM1015 105V110H1020V105H1015ZM1015 140H1020V135H1015V140ZM910 140V135H905V140H910ZM910 210H905V215H910V210ZM1015 210V215H1020V210H1015ZM845 122.5V0H835V122.5H845ZM840 5H945V-5H840V5ZM945 5H1050V-5H945V5ZM1045 0V17.5H1055V0H1045ZM1045 17.5V35H1055V17.5H1045ZM1050 40H1067.5V30H1050V40ZM1067.5 40H1085V30H1067.5V40ZM1080 35V70H1090V35H1080ZM1080 70V105H1090V70H1080ZM1085 100H1067.5V110H1085V100ZM1067.5 100H1050V110H1067.5V100ZM1045 105V122.5H1055V105H1045ZM1045 122.5V140H1055V122.5H1045ZM1050 145H1067.5V135H1050V145ZM1067.5 145H1085V135H1067.5V145ZM1080 140V175H1090V140H1080ZM1080 175V210H1090V175H1080ZM1085 205H1067.5V215H1085V205ZM1067.5 205H1050V215H1067.5V205ZM1045 210V227.5H1055V210H1045ZM1045 227.5V245H1055V227.5H1045ZM1050 240H945V250H1050V240ZM945 240H840V250H945V240ZM845 245V122.5H835V245H845ZM1020 70V35H1010V70H1020ZM1015 30H962.5V40H1015V30ZM962.5 30H910V40H962.5V30ZM905 35V70H915V35H905ZM905 70V105H915V70H905ZM910 110H962.5V100H910V110ZM962.5 110H1015V100H962.5V110ZM1020 105V70H1010V105H1020ZM1020 175V140H1010V175H1020ZM1015 135H962.5V145H1015V135ZM962.5 135H910V145H962.5V135ZM905 140V175H915V140H905ZM905 175V210H915V175H905ZM910 215H962.5V205H910V215ZM962.5 215H1015V205H962.5V215ZM1020 210V175H1010V210H1020Z"
      fill="#477AB6" />
  </g>
  <defs>
    <filter id="filter0_d_728_7599" x="0" y="0" width="1085" height="261"
      filterUnits="userSpaceOnUse" color-interpolation-filters="sRGB">
      <feFlood flood-opacity="0" result="BackgroundImageFix" />
      <feColorMatrix in="SourceAlpha" type="matrix"
        values="0 0 0 0 0 0 0 0 0 0 0 0 0 0 0 0 0 0 127 0" result="hardAlpha" />
      <feOffset dy="16" />
      <feComposite in2="hardAlpha" operator="out" />
      <feColorMatrix type="matrix" values="0 0 0 0 0 0 0 0 0 0 0 0 0 0 0 0 0 0 0.25 0" />
      <feBlend mode="normal" in2="BackgroundImageFix" result="effect1_dropShadow_728_7599" />
      <feBlend mode="normal" in="SourceGraphic" in2="effect1_dropShadow_728_7599" result="shape" />
    </filter>
  </defs>
</svg>
  